<?xml version="1.0" encoding="UTF-8"?>
<svg enable-background="new" version="1.1" viewBox="0 0 800 800" xmlns="http://www.w3.org/2000/svg" xmlns:xlink="http://www.w3.org/1999/xlink">
 <defs>
  <linearGradient id="linearGradient3885" x1="520.33" x2="524.01" y1="978.59" y2="164.41" gradientUnits="userSpaceOnUse">
   <stop stop-color="#204aca" offset="0"/>
   <stop stop-color="#a9bbf1" stop-opacity=".85593" offset="1"/>
  </linearGradient>
  <linearGradient id="linearGradient3887" x1="165.78" x2="743.18" y1="569.36" y2="569.36" gradientUnits="userSpaceOnUse">
   <stop stop-color="#16348e" offset="0"/>
   <stop stop-color="#9eb2f0" offset="1"/>
  </linearGradient>
  <linearGradient id="linearGradient3889" x1="513.87" x2="520.47" y1="156.17" y2="981.6" gradientTransform="matrix(1.2965 0 0 1.2965 61.323 -72.501)" gradientUnits="userSpaceOnUse">
   <stop stop-color="#d8e5fb" offset="0"/>
   <stop stop-color="#4580e9" offset="1"/>
  </linearGradient>
 </defs>
 <g transform="translate(-97.438 -171.5)">
  <text x="248.57143" y="475.21933" fill="#000000" font-family="Arial" letter-spacing="0px" word-spacing="0px" style="line-height:0%" xml:space="preserve"><tspan x="248.57143" y="475.21933" font-size="72px" style="line-height:1.25"> </tspan></text>
  <text x="162.85715" y="169.50504" fill="#000000" font-family="Arial" letter-spacing="0px" word-spacing="0px" style="line-height:0%" xml:space="preserve"><tspan x="162.85715" y="169.50504" font-size="72px" style="line-height:1.25"> </tspan></text>
  <path d="m-283.57 168.35c-108.79 0-205.07 52.469-265.72 133.25l-111.06-111.09v354.64h354.64l-120.65-120.65c32.058-97.233 123.49-167.49 231.44-167.49 134.72 0 243.82 109.18 243.82 243.82 0-183.64-148.83-332.48-332.45-332.48z" display="none"/>
  <g transform="matrix(1.0186 0 0 1.0186 33.483 -8.4387)">
   <path transform="translate(1.0102)" d="m527.03 177.16c-85.951 7.8e-4 -159.97 35.151-215.03 101.94-0.0145 0.0176-0.0168 0.0449-0.0312 0.0625-43.627 52.621-72.07 118.06-86.062 194.56h-22.344a25.327 25.327 0 0 0-24.281 18.156l-11.969 40.625a25.327 25.327 0 0 0 19.031 31.906 25.327 25.327 0 0 0-7.0625 11.375l-11.969 40.625a25.327 25.327 0 0 0 24.281 32.469h29.562c8.6508 80.449 29.874 148.09 65.25 201.78 47.578 72.275 119.55 110.91 206.31 110.91 60.807-1e-5 115.34-18.603 159.69-55.312a25.327 25.327 0 0 0 0.0312-0.0312c27.829-23.108 55.739-58.562 86.344-107.06a25.327 25.327 0 0 0-7.6562-34.75l-16.125-10.438a25.327 25.327 0 0 0-34.312 6.4375c-28.09 39.001-51.419 64.851-66.031 75.969a25.327 25.327 0 0 0-0.0937 0.0625c-26.389 20.274-58.964 30.75-101.06 30.75-43.147 2e-5 -74.508-20.498-102.5-72.156-0.0109-0.0202-0.0204-0.0423-0.0312-0.0625-20.948-38.97-34.239-87.543-39.063-146.09h247.19a25.327 25.327 0 0 0 24.312-18.188l11.938-40.625a25.327 25.327 0 0 0-6.9062-25.5 25.327 25.327 0 0 0 19.875-17.75l11.969-40.625a25.327 25.327 0 0 0-24.281-32.469h-278.56c8.2994-56.281 22.512-102.22 41.844-137.69 28.939-52.602 61.935-73.843 107.75-73.844 42.735 3.1e-4 71.326 11.552 92.156 33.812s34.906 57.998 39.125 110.19a25.327 25.327 0 0 0 25.25 23.281h20.281a25.327 25.327 0 0 0 25.312-25.312v-155.81a25.327 25.327 0 0 0-13.594-22.438c-61.695-32.192-124.89-48.749-188.53-48.75z" fill="url(#linearGradient3885)" stroke="url(#linearGradient3887)" xlink:href="#text3044-2"/>
   <text id="text3044-2" transform="scale(.99894 1.0011)" x="203.7757" y="922.78259" fill="url(#linearGradient3889)" font-family="'Times New Roman'" letter-spacing="0px" word-spacing="0px" style="line-height:0%" xml:space="preserve"><tspan x="203.7757" y="922.78259" fill="url(#linearGradient3889)" font-size="1066.2px" style="line-height:1.25">€</tspan></text>
  </g>
 </g>
</svg>
